# xmcd
#
# Track frame offsets:
#	150
#	16728
#	34803
#	46195
#	57825
#	75095
#	93288
#	107940
#	125310
#	140795
#	156109
#	173135
#	186276
#	205783
#	220403
#
# Disc length: 3118 seconds
#
# Revision: 0
# Processed by: cddbd v1.5.2PL0 Copyright (c) Steve Scherf et al.
# Submitted via: audiograbber 1.83.01
#
DISCID=c30c2c0f
DTITLE=Various Artist - Живи и помни
DYEAR=2005
DGENRE=Patriotic
TTITLE0=Элина Тетель - Нам нужна одна Победа
TTITLE1=Артур Кочаров - На безымянной высоте
TTITLE2=группа Иван - В землянке
TTITLE3=Ольга Коротеева - Синий платочек
TTITLE4=Валерий Петряев - Темная ночь
TTITLE5=Александр Сокол - Смуглянка
TTITLE6=братья Чафоновы - По полю танки грохотали
TTITLE7=Любовь Бирюкова - Давай закурим
TTITLE8=Александр Мордовин - Эх, дороги
TTITLE9=группа А - Случайный вальс
TTITLE10=Олег Синенок - Где-то далеко
TTITLE11=группа Голубые молнии - Песня фронтового шофера
TTITLE12=Мари Карне - За того парня
TTITLE13=Станислав Юрко - Тишина
TTITLE14=группа Контингент - От героев былой войны
EXTD=
EXTT0=
EXTT1=
EXTT2=
EXTT3=
EXTT4=
EXTT5=
EXTT6=
EXTT7=
EXTT8=
EXTT9=
EXTT10=
EXTT11=
EXTT12=
EXTT13=
EXTT14=
PLAYORDER=
